<svg xmlns="http://www.w3.org/2000/svg" width="70" height="70" fill="none"><path fill="#292929" d="M59.813 59.746a34.702 34.702 0 01-11.123 7.51c-2.127.878-4.298 1.58-6.558 2.02a34.837 34.837 0 01-14.136 0 34.919 34.919 0 01-12.497-5.27c-1.418-.967-2.748-1.977-3.988-3.118 1.55.351 3.146.527 4.697.527.443 0 .93 0 1.418-.044 5.76-.352 12.851-2.899 21.625-7.73a54.127 54.127 0 013.546-1.8c3.234 1.713 6.336 2.855 9.35 3.382 1.285.22 2.614.351 3.9.351 2.924 0 5.805-.615 8.596-1.8-.177.307-.354.57-.531.834-1.285 1.844-2.748 3.557-4.299 5.138zM7.877 40.643c3.368-3.074 6.647-4.787 9.749-5.094a10.145 10.145 0 014.564.659c1.684.658 3.368 1.8 5.008 3.425-.488.483-.975.878-1.507 1.273-3.235 2.592-6.47 4.875-9.66 6.763-2.615 1.537-5.14 2.81-7.534 3.69-1.728.658-2.969 1.01-3.766 1.185-.754-1.274-1.374-2.591-1.95-3.908-.178-.484-.4-.967-.576-1.406 1.107-1.668 3.102-4.26 5.672-6.587zM.697 27.952c.932-4.48 2.704-8.74 5.274-12.516C9.782 9.815 15.144 5.38 21.393 2.745c2.127-.879 4.298-1.581 6.558-2.02a34.836 34.836 0 0114.136 0 34.92 34.92 0 0112.497 5.27 34.62 34.62 0 0112.674 15.413c.886 2.108 1.595 4.304 2.038 6.588.931 4.567.931 9.266.045 13.833-1.374-2.196-3.147-4.743-5.274-7.202-4.874-5.71-9.749-8.915-14.535-9.53-2.171-.263-4.431 0-6.47.835-2.171.878-4.298 2.415-6.292 4.567a118.607 118.607 0 01-6.692 6.63c-.088-.087-.133-.13-.221-.219-3.9-3.864-8.154-5.62-12.674-5.182-7.002.66-12.896 6.5-16.396 10.847-.045-.175-.09-.307-.09-.483a36.16 36.16 0 010-14.14zm51.317 20.727c3.323-.702 6.514-.922 9.527-.614 1.419.131 2.792.395 4.166.746a20.405 20.405 0 01-4.742 2.108c-2.659.79-5.362.922-8.198.44-1.64-.264-3.323-.791-5.096-1.494a39.9 39.9 0 014.343-1.186zm-9.44-1.449c-3.057-1.844-6.292-4.347-9.66-7.465a120.13 120.13 0 006.736-6.675c1.596-1.713 3.235-2.943 4.92-3.601 1.461-.615 2.968-.79 4.52-.615 1.993.263 4.076 1.142 6.247 2.723 1.906 1.361 3.856 3.205 5.806 5.489 2.348 2.767 4.342 5.753 5.672 7.949-1.507-.396-3.058-.703-4.653-.835-3.457-.351-7.09-.132-10.813.615a46.39 46.39 0 00-8.42 2.635c-.044-.044-.221-.132-.354-.22zM8.144 55.618c2.348-.79 5.628-2.152 9.837-4.611 3.368-1.976 6.78-4.348 10.148-7.07.62-.527 1.286-1.01 1.906-1.581 3.013 2.81 5.982 5.182 8.819 7.07-.488.264-.975.527-1.507.79-8.243 4.568-14.801 6.939-19.986 7.246-4.077.308-6.736-.746-9.217-1.844z"/></svg>